<svg width="30" height="29" viewBox="0 0 30 29" fill="none" xmlns="http://www.w3.org/2000/svg">
<g clip-path="url(#clip0_127:31)">
<path d="M30 14.4522C30 21.9448 23.2844 28.0186 15 28.0186C6.71562 28.0186 0 21.9448 0 14.4522C0 6.95954 6.71562 0.885742 15 0.885742C23.2844 0.885742 30 6.95954 30 14.4522Z" fill="#4A7AFF"/>
<path d="M15.6583 28.0048C23.6371 27.6933 30 21.7451 30 14.4523C30 14.3995 29.9984 14.3469 29.9978 14.2941L19.5857 4.87695L8.45288 15.4012L14.6384 20.9956L11.7863 24.5029L15.6583 28.0048Z" fill="#0053BF"/>
<path d="M19.5857 4.87703V7.94902C19.5857 7.94902 15.686 7.43709 15.686 9.71251V11.9879H19.2083L18.7681 15.458H15.686V24.503H11.7863V15.458L8.45264 15.4011V11.9879H11.7234V9.37116C11.7234 9.37116 11.5075 5.47839 15.7489 4.76338C17.5102 4.46633 19.5857 4.87703 19.5857 4.87703Z" fill="white"/>
<path d="M19.5856 7.94902V4.87703C19.5856 4.87703 17.5101 4.46633 15.7489 4.76338C15.4737 4.80975 15.2178 4.86979 14.9791 4.94079V24.503H15.6859V15.458H18.7678L19.2082 11.9879H15.6859C15.6859 11.9879 15.6859 11.9879 15.6859 9.71251C15.6859 7.43709 19.5856 7.94902 19.5856 7.94902Z" fill="#DCE1EB"/>
</g>
<defs>
<clipPath id="clip0_127:31">
<rect width="30" height="27.1329" fill="white" transform="translate(0 0.885742)"/>
</clipPath>
</defs>
</svg>
