<svg width="30" height="29" viewBox="0 0 30 29" fill="none" xmlns="http://www.w3.org/2000/svg">
<g clip-path="url(#clip0_127:36)">
<path d="M29.4864 5.73882C29.2133 3.42489 27.1928 1.59702 24.6341 1.35027C18.2176 0.730901 11.7824 0.730901 5.36613 1.35027C2.80746 1.59723 0.786667 3.42489 0.513611 5.73882C-0.171204 11.5419 -0.171204 17.3623 0.513611 23.1653C0.786667 25.4794 2.80746 27.3071 5.36591 27.5541C11.7822 28.1734 18.2176 28.1734 24.6341 27.5541C27.1928 27.3071 29.2133 25.4794 29.4864 23.1653C30.1712 17.3623 30.1712 11.5421 29.4864 5.73882V5.73882Z" fill="url(#paint0_radial_127:36)"/>
<path d="M27.8547 6.72029C27.6125 4.66699 25.8194 3.04509 23.5489 2.82587C17.8553 2.27647 12.1447 2.27647 6.451 2.82587C4.18072 3.04509 2.38743 4.66699 2.14504 6.72029C1.53759 11.8698 1.53759 17.0346 2.14504 22.1839C2.38743 24.2375 4.18072 25.8594 6.451 26.0784C12.1447 26.628 17.8553 26.628 23.5487 26.0784C25.8192 25.8594 27.6125 24.2375 27.8547 22.1839C28.4623 17.0346 28.4623 11.8698 27.8547 6.72029V6.72029Z" fill="url(#paint1_linear_127:36)"/>
<path d="M0.449463 22.6028C0.470062 22.7903 0.491348 22.9779 0.51355 23.1654C0.786606 25.4794 2.8074 27.307 5.36607 27.554C11.7823 28.1733 18.2178 28.1733 24.634 27.554C27.1927 27.307 29.2133 25.4794 29.4863 23.1654C29.5085 22.9779 29.5298 22.7903 29.5506 22.6028H0.449463Z" fill="url(#paint2_linear_127:36)"/>
<path d="M29.4864 23.1656C29.8544 20.0474 30.0242 16.9243 29.9968 13.8016L23.1395 7.59966C22.2828 6.71512 21.0315 6.16303 19.5611 6.11521C16.5374 6.01668 13.504 6.02165 10.4798 6.11563C7.96805 6.19388 6.21161 7.72076 5.76117 9.96493C5.68175 10.3611 5.63414 10.7625 5.57166 11.1616V17.7407C5.60622 17.954 5.65703 18.1661 5.67282 18.3806C5.77353 19.7456 6.3938 20.9148 7.38692 21.7058L14.3651 28.0168C17.7896 28.0385 21.2144 27.8845 24.6341 27.5543C27.1927 27.3074 29.2133 25.4797 29.4864 23.1656V23.1656Z" fill="url(#paint3_linear_127:36)"/>
<path d="M29.4864 23.1655C29.2136 25.4792 27.1923 27.3073 24.6341 27.554C21.2148 27.884 17.7894 28.0382 14.3653 28.0165L7.39771 21.7148C8.20543 22.3542 9.25829 22.7436 10.4801 22.7852C13.5036 22.8879 16.5376 22.8852 19.5612 22.7867C22.2959 22.6972 24.2748 20.8667 24.3601 18.3934C24.4512 15.7673 24.4512 13.1343 24.3601 10.5082C24.3212 9.36722 23.8783 8.36323 23.1441 7.60352L29.997 13.8015C30.024 16.9238 29.8542 20.0473 29.4864 23.1655Z" fill="url(#paint4_linear_127:36)"/>
<path d="M18.5399 11.5141C17.6614 10.649 16.401 10.1062 15 10.1062C12.3463 10.1062 10.1948 12.0521 10.1948 14.4521C10.1948 15.7192 10.795 16.8592 11.7514 17.6537L22.8689 27.7087C23.4574 27.6623 24.0458 27.6107 24.6338 27.554C27.1925 27.3071 29.2133 25.4794 29.4864 23.1653C29.5491 22.6335 29.6061 22.1012 29.6573 21.569L18.5399 11.5141Z" fill="url(#paint5_linear_127:36)"/>
<path d="M29.9419 17.375L20.9944 9.2829C20.7857 9.03511 20.4568 8.87427 20.0858 8.87427C19.4545 8.87427 18.9425 9.33714 18.9425 9.90827C18.9425 10.2438 19.1203 10.5413 19.3943 10.7301L29.7819 20.1251C29.8524 19.2087 29.9057 18.2919 29.9419 17.375V17.375Z" fill="url(#paint6_linear_127:36)"/>
<path d="M5.57166 11.1616C5.63414 10.7625 5.68175 10.3611 5.76117 9.96493C6.21138 7.72076 7.96805 6.19388 10.4798 6.11563C13.504 6.02165 16.5374 6.01668 19.5611 6.11521C22.2949 6.20423 24.2747 8.035 24.3601 10.5083C24.451 13.1346 24.451 15.7673 24.3601 18.3936C24.2747 20.867 22.2956 22.6975 19.5614 22.7868C16.5376 22.8855 13.5036 22.888 10.48 22.7853C7.7458 22.6924 5.8557 20.8574 5.67282 18.3804C5.65703 18.1661 5.60622 17.9538 5.57166 17.7405C5.57166 15.5475 5.57166 13.3545 5.57166 11.1616V11.1616ZM15.0025 21.3209C16.3863 21.3209 17.7715 21.3584 19.1535 21.3122C21.3203 21.2396 22.6531 20.07 22.7037 18.1121C22.7664 15.6725 22.7664 13.2296 22.7037 10.7899C22.6531 8.83239 21.3194 7.63548 19.1535 7.59387C16.4044 7.54129 13.6523 7.5417 10.9032 7.59387C8.7538 7.63465 7.41713 8.80734 7.35876 10.7433C7.28461 13.2137 7.28461 15.6885 7.35876 18.1589C7.41713 20.0946 8.7538 21.2402 10.9035 21.3122C12.2681 21.3582 13.6361 21.3209 15.0025 21.3209V21.3209Z" fill="url(#paint7_linear_127:36)"/>
<path d="M5.57166 11.1616C5.63414 10.7625 5.68175 10.3611 5.76117 9.96493C6.21138 7.72076 7.96805 6.19388 10.4798 6.11563C13.504 6.02165 16.5374 6.01668 19.5611 6.11521C22.2949 6.20423 24.2747 8.035 24.3601 10.5083C24.451 13.1346 24.451 15.7673 24.3601 18.3936C24.2747 20.867 22.2956 22.6975 19.5614 22.7868C16.5376 22.8855 13.5036 22.888 10.48 22.7853C7.7458 22.6924 5.8557 20.8574 5.67282 18.3804C5.65703 18.1661 5.60622 17.9538 5.57166 17.7405C5.57166 15.5475 5.57166 13.3545 5.57166 11.1616V11.1616ZM15.0025 21.3209C16.3863 21.3209 17.7715 21.3584 19.1535 21.3122C21.3203 21.2396 22.6531 20.07 22.7037 18.1121C22.7664 15.6725 22.7664 13.2296 22.7037 10.7899C22.6531 8.83239 21.3194 7.63548 19.1535 7.59387C16.4044 7.54129 13.6523 7.5417 10.9032 7.59387C8.7538 7.63465 7.41713 8.80734 7.35876 10.7433C7.28461 13.2137 7.28461 15.6885 7.35876 18.1589C7.41713 20.0946 8.7538 21.2402 10.9035 21.3122C12.2681 21.3582 13.6361 21.3209 15.0025 21.3209V21.3209Z" fill="white"/>
<path d="M15 10.1064C12.3463 10.1064 10.1948 12.0521 10.1948 14.4521C10.1948 16.8524 12.3463 18.7981 15 18.7981C17.6539 18.7981 19.8051 16.8524 19.8051 14.4521C19.8051 12.0521 17.6539 10.1064 15 10.1064ZM15 17.3018C13.2598 17.3018 11.8492 16.026 11.8492 14.4521C11.8492 12.8783 13.2598 11.6025 15 11.6025C16.7402 11.6025 18.1508 12.8783 18.1508 14.4521C18.1508 16.026 16.7402 17.3018 15 17.3018Z" fill="white"/>
<path d="M21.2288 9.90827C21.2288 10.4792 20.717 10.9421 20.0858 10.9421C19.4545 10.9421 18.9425 10.4792 18.9425 9.90827C18.9425 9.33714 19.4545 8.87427 20.0858 8.87427C20.717 8.87427 21.2288 9.33714 21.2288 9.90827Z" fill="white"/>
</g>
<defs>
<radialGradient id="paint0_radial_127:36" cx="0" cy="0" r="1" gradientUnits="userSpaceOnUse" gradientTransform="translate(6.14983 24.5977) scale(33.0847 29.9228)">
<stop stop-color="#FAE100"/>
<stop offset="0.0544" stop-color="#FADC04"/>
<stop offset="0.1167" stop-color="#FBCE0E"/>
<stop offset="0.1829" stop-color="#FCB720"/>
<stop offset="0.2514" stop-color="#FE9838"/>
<stop offset="0.3054" stop-color="#FF7950"/>
<stop offset="0.4922" stop-color="#FF1C74"/>
<stop offset="1" stop-color="#6C1CD1"/>
</radialGradient>
<linearGradient id="paint1_linear_127:36" x1="11.5062" y1="12.6748" x2="-36.7373" y2="-17.3297" gradientUnits="userSpaceOnUse">
<stop stop-color="#A1B5D8" stop-opacity="0"/>
<stop offset="0.3094" stop-color="#90A2BD" stop-opacity="0.309804"/>
<stop offset="0.7554" stop-color="#7C8B9C" stop-opacity="0.756863"/>
<stop offset="1" stop-color="#748290"/>
</linearGradient>
<linearGradient id="paint2_linear_127:36" x1="15" y1="24.8371" x2="15" y2="29.0664" gradientUnits="userSpaceOnUse">
<stop stop-color="#FAE100" stop-opacity="0"/>
<stop offset="0.3068" stop-color="#FCA800" stop-opacity="0.305882"/>
<stop offset="0.6275" stop-color="#FE7300" stop-opacity="0.627451"/>
<stop offset="0.8685" stop-color="#FF5200" stop-opacity="0.866667"/>
<stop offset="1" stop-color="#FF4500"/>
</linearGradient>
<linearGradient id="paint3_linear_127:36" x1="13.2933" y1="12.8705" x2="6.61208" y2="5.48324" gradientUnits="userSpaceOnUse">
<stop stop-color="#833AB4" stop-opacity="0"/>
<stop offset="1" stop-color="#833AB4"/>
</linearGradient>
<linearGradient id="paint4_linear_127:36" x1="20.5605" y1="25.7021" x2="17.5054" y2="9.77716" gradientUnits="userSpaceOnUse">
<stop stop-color="#833AB4" stop-opacity="0"/>
<stop offset="1" stop-color="#833AB4"/>
</linearGradient>
<linearGradient id="paint5_linear_127:36" x1="21.9706" y1="20.7565" x2="8.5765" y2="5.94708" gradientUnits="userSpaceOnUse">
<stop stop-color="#833AB4" stop-opacity="0"/>
<stop offset="1" stop-color="#833AB4"/>
</linearGradient>
<linearGradient id="paint6_linear_127:36" x1="23.0746" y1="12.6114" x2="18.6455" y2="7.71425" gradientUnits="userSpaceOnUse">
<stop stop-color="#833AB4" stop-opacity="0"/>
<stop offset="1" stop-color="#833AB4"/>
</linearGradient>
<linearGradient id="paint7_linear_127:36" x1="20.9565" y1="9.10268" x2="10.0358" y2="21.1774" gradientUnits="userSpaceOnUse">
<stop stop-color="#833AB4"/>
<stop offset="0.0922" stop-color="#9C3495"/>
<stop offset="0.2927" stop-color="#DC2546"/>
<stop offset="0.392" stop-color="#FD1D1D"/>
<stop offset="0.5589" stop-color="#FC6831"/>
<stop offset="0.6887" stop-color="#FC9B40"/>
<stop offset="0.7521" stop-color="#FCAF45"/>
<stop offset="0.7806" stop-color="#FDB750"/>
<stop offset="0.8656" stop-color="#FECB6A"/>
<stop offset="0.9415" stop-color="#FFD87A"/>
<stop offset="1" stop-color="#FFDC80"/>
</linearGradient>
<clipPath id="clip0_127:36">
<rect width="30" height="27.1329" fill="white" transform="translate(0 0.885742)"/>
</clipPath>
</defs>
</svg>
