<svg width="140" height="36" viewBox="0 0 140 36" fill="none" xmlns="http://www.w3.org/2000/svg">
<path d="M0.512 1.4H6.752V29.72H24.32V35H0.512V1.4ZM44.333 35.48C40.909 35.48 37.821 34.744 35.069 33.272C32.317 31.768 30.157 29.704 28.589 27.08C27.021 24.424 26.237 21.464 26.237 18.2C26.237 14.936 27.021 11.992 28.589 9.368C30.157 6.712 32.317 4.648 35.069 3.176C37.821 1.672 40.909 0.919998 44.333 0.919998C47.757 0.919998 50.845 1.672 53.597 3.176C56.349 4.648 58.509 6.696 60.077 9.32C61.645 11.944 62.429 14.904 62.429 18.2C62.429 21.496 61.645 24.456 60.077 27.08C58.509 29.704 56.349 31.768 53.597 33.272C50.845 34.744 47.757 35.48 44.333 35.48ZM44.333 30.008C46.573 30.008 48.589 29.512 50.381 28.52C52.173 27.496 53.581 26.088 54.605 24.296C55.629 22.472 56.141 20.44 56.141 18.2C56.141 15.96 55.629 13.944 54.605 12.152C53.581 10.328 52.173 8.92 50.381 7.928C48.589 6.904 46.573 6.392 44.333 6.392C42.093 6.392 40.077 6.904 38.285 7.928C36.493 8.92 35.085 10.328 34.061 12.152C33.037 13.944 32.525 15.96 32.525 18.2C32.525 20.44 33.037 22.472 34.061 24.296C35.085 26.088 36.493 27.496 38.285 28.52C40.077 29.512 42.093 30.008 44.333 30.008ZM91.9873 17.816H97.8913V31.208C96.1633 32.584 94.1473 33.64 91.8433 34.376C89.5393 35.112 87.1713 35.48 84.7393 35.48C81.3153 35.48 78.2273 34.744 75.4753 33.272C72.7233 31.768 70.5633 29.704 68.9953 27.08C67.4273 24.456 66.6433 21.496 66.6433 18.2C66.6433 14.904 67.4273 11.944 68.9953 9.32C70.5633 6.696 72.7233 4.648 75.4753 3.176C78.2593 1.672 81.3793 0.919998 84.8353 0.919998C87.6513 0.919998 90.2113 1.384 92.5153 2.312C94.8193 3.24 96.7553 4.6 98.3233 6.392L94.3873 10.232C91.8273 7.672 88.7393 6.392 85.1233 6.392C82.7553 6.392 80.6433 6.888 78.7873 7.88C76.9633 8.872 75.5233 10.264 74.4673 12.056C73.4433 13.848 72.9313 15.896 72.9313 18.2C72.9313 20.44 73.4433 22.456 74.4673 24.248C75.5233 26.04 76.9633 27.448 78.7873 28.472C80.6433 29.496 82.7393 30.008 85.0753 30.008C87.6993 30.008 90.0033 29.432 91.9873 28.28V17.816ZM121.817 35.48C118.393 35.48 115.305 34.744 112.553 33.272C109.801 31.768 107.641 29.704 106.073 27.08C104.505 24.424 103.721 21.464 103.721 18.2C103.721 14.936 104.505 11.992 106.073 9.368C107.641 6.712 109.801 4.648 112.553 3.176C115.305 1.672 118.393 0.919998 121.817 0.919998C125.241 0.919998 128.329 1.672 131.081 3.176C133.833 4.648 135.993 6.696 137.561 9.32C139.129 11.944 139.913 14.904 139.913 18.2C139.913 21.496 139.129 24.456 137.561 27.08C135.993 29.704 133.833 31.768 131.081 33.272C128.329 34.744 125.241 35.48 121.817 35.48ZM121.817 30.008C124.057 30.008 126.073 29.512 127.865 28.52C129.657 27.496 131.065 26.088 132.089 24.296C133.113 22.472 133.625 20.44 133.625 18.2C133.625 15.96 133.113 13.944 132.089 12.152C131.065 10.328 129.657 8.92 127.865 7.928C126.073 6.904 124.057 6.392 121.817 6.392C119.577 6.392 117.561 6.904 115.769 7.928C113.977 8.92 112.569 10.328 111.545 12.152C110.521 13.944 110.009 15.96 110.009 18.2C110.009 20.44 110.521 22.472 111.545 24.296C112.569 26.088 113.977 27.496 115.769 28.52C117.561 29.512 119.577 30.008 121.817 30.008Z" fill="black"/>
</svg>
