<svg width="25" height="25" viewBox="0 0 25 25" fill="none" xmlns="http://www.w3.org/2000/svg">
<g clip-path="url(#clip0_61:133)">
<path d="M19.7578 15.4866C19.2459 14.9537 18.6286 14.6688 17.9743 14.6688C17.3253 14.6688 16.7027 14.9484 16.1698 15.4813L14.5024 17.1434C14.3653 17.0695 14.2281 17.0009 14.0962 16.9323C13.9062 16.8374 13.7268 16.7477 13.5738 16.6527C12.012 15.6607 10.5926 14.368 9.2313 12.6954C8.57175 11.8617 8.12853 11.1599 7.80667 10.4476C8.23934 10.0519 8.64034 9.64033 9.0308 9.2446C9.17854 9.09686 9.32628 8.94384 9.47402 8.7961C10.5821 7.68805 10.5821 6.25286 9.47402 5.14482L8.03356 3.70435C7.86999 3.54078 7.70114 3.37194 7.54285 3.20309C7.22626 2.87596 6.89385 2.53826 6.55088 2.22168C6.03907 1.71514 5.427 1.44604 4.78328 1.44604C4.13956 1.44604 3.51694 1.71514 2.9893 2.22168C2.98402 2.22696 2.98402 2.22696 2.97874 2.23223L1.18476 4.04204C0.50938 4.71743 0.124201 5.54055 0.0397781 6.49558C-0.086856 8.0363 0.366916 9.47148 0.71516 10.4107C1.56994 12.7165 2.84683 14.8534 4.75162 17.1434C7.06269 19.903 9.84337 22.0821 13.0198 23.6176C14.2333 24.1927 15.8532 24.8734 17.663 24.9894C17.7738 24.9947 17.8899 25 17.9954 25C19.2143 25 20.2379 24.562 21.0399 23.6914C21.0452 23.6809 21.0558 23.6756 21.061 23.6651C21.3354 23.3326 21.652 23.0319 21.9844 22.71C22.2113 22.4937 22.4435 22.2668 22.6703 22.0294C23.1927 21.4859 23.4671 20.8527 23.4671 20.2037C23.4671 19.5494 23.1874 18.9216 22.6545 18.3939L19.7578 15.4866ZM21.6467 21.0427C21.6414 21.0427 21.6414 21.048 21.6467 21.0427C21.4409 21.2643 21.2299 21.4648 21.003 21.6864C20.66 22.0135 20.3118 22.3565 19.9846 22.7417C19.4517 23.3115 18.8238 23.5806 18.0007 23.5806C17.9216 23.5806 17.8371 23.5806 17.758 23.5754C16.1909 23.4751 14.7346 22.863 13.6424 22.3407C10.6559 20.8949 8.03356 18.8424 5.85439 16.2411C4.05513 14.0725 2.85211 12.0675 2.05537 9.9147C1.56466 8.60087 1.38527 7.57725 1.46441 6.61166C1.51718 5.99432 1.75461 5.48251 2.19256 5.04456L3.99182 3.2453C4.25036 3.00259 4.52474 2.87068 4.79383 2.87068C5.12625 2.87068 5.39535 3.07118 5.56419 3.24003C5.56947 3.2453 5.57474 3.25058 5.58002 3.25586C5.90188 3.55661 6.20791 3.86792 6.52978 4.20034C6.69334 4.36918 6.86219 4.53803 7.03104 4.71215L8.4715 6.15261C9.0308 6.71191 9.0308 7.229 8.4715 7.7883C8.31848 7.94132 8.17074 8.09434 8.01773 8.24207C7.57451 8.69585 7.15239 9.11796 6.69335 9.52952C6.68279 9.54008 6.67224 9.54535 6.66696 9.5559C6.21319 10.0097 6.29761 10.4529 6.39259 10.7537C6.39787 10.7695 6.40314 10.7853 6.40842 10.8011C6.78304 11.7087 7.31069 12.5635 8.1127 13.5818L8.11798 13.5871C9.57427 15.3811 11.1097 16.7793 12.8034 17.8504C13.0198 17.9876 13.2414 18.0984 13.4524 18.204C13.6424 18.2989 13.8218 18.3886 13.9748 18.4836C13.9959 18.4942 14.017 18.51 14.0381 18.5205C14.2175 18.6102 14.3864 18.6525 14.5605 18.6525C14.9984 18.6525 15.2728 18.3781 15.3625 18.2884L17.167 16.4838C17.3464 16.3044 17.6314 16.0881 17.9638 16.0881C18.2909 16.0881 18.56 16.2939 18.7236 16.4733C18.7289 16.4786 18.7289 16.4786 18.7341 16.4838L21.6414 19.3912C22.1849 19.9293 22.1849 20.4834 21.6467 21.0427Z" fill="white"/>
<path d="M13.5104 5.94682C14.8928 6.17898 16.1486 6.83326 17.1511 7.83578C18.1536 8.8383 18.8026 10.0941 19.0401 11.4765C19.0981 11.8247 19.3989 12.0675 19.7419 12.0675C19.7841 12.0675 19.821 12.0622 19.8632 12.0569C20.2537 11.9936 20.5122 11.6242 20.4489 11.2338C20.164 9.56117 19.3725 8.03628 18.1642 6.82798C16.9559 5.61968 15.431 4.82822 13.7584 4.54329C13.3679 4.47997 13.0039 4.73852 12.9353 5.1237C12.8667 5.50887 13.1199 5.8835 13.5104 5.94682Z" fill="white"/>
<path d="M24.9708 11.028C24.5012 8.27374 23.2032 5.76744 21.2087 3.77295C19.2142 1.77846 16.7079 0.480461 13.9536 0.0108597C13.5684 -0.0577338 13.2043 0.206087 13.1358 0.591266C13.0724 0.981721 13.331 1.34579 13.7214 1.41439C16.1802 1.83122 18.4227 2.99731 20.2062 4.77547C21.9896 6.5589 23.1504 8.80138 23.5672 11.2602C23.6253 11.6084 23.926 11.8511 24.269 11.8511C24.3112 11.8511 24.3481 11.8459 24.3904 11.8406C24.7755 11.7826 25.0394 11.4132 24.9708 11.028Z" fill="white"/>
</g>
<defs>
<clipPath id="clip0_61:133">
<rect width="25" height="25" fill="white"/>
</clipPath>
</defs>
</svg>
