<svg width="18" height="17" viewBox="0 0 18 17" fill="none" xmlns="http://www.w3.org/2000/svg">
<path d="M16.7629 5.89649L11.7936 5.17579L9.57218 0.681648C9.5115 0.558601 9.41169 0.458992 9.28838 0.398445C8.97915 0.246101 8.60337 0.373054 8.44875 0.681648L6.22733 5.17579L1.25802 5.89649C1.12101 5.91602 0.995753 5.98048 0.899851 6.07813C0.78391 6.19705 0.720021 6.35704 0.722223 6.52294C0.724425 6.68884 0.792537 6.84709 0.911594 6.9629L4.50696 10.4609L3.65754 15.4004C3.63762 15.5153 3.65036 15.6335 3.69432 15.7415C3.73827 15.8496 3.81169 15.9432 3.90623 16.0117C4.00078 16.0802 4.11268 16.1209 4.22923 16.1292C4.34579 16.1375 4.46234 16.113 4.56567 16.0586L9.01046 13.7266L13.4552 16.0586C13.5766 16.1231 13.7175 16.1445 13.8526 16.1211C14.1931 16.0625 14.4221 15.7402 14.3634 15.4004L13.514 10.4609L17.1093 6.9629C17.2072 6.8672 17.2718 6.74219 17.2913 6.60548C17.3442 6.26368 17.1054 5.94727 16.7629 5.89649Z" fill="#3FCB5D"/>
</svg>
