<svg width="30" height="29" viewBox="0 0 30 29" fill="none" xmlns="http://www.w3.org/2000/svg">
<g clip-path="url(#clip0_127:26)">
<path d="M15 28.0186C23.2843 28.0186 30 21.9447 30 14.4522C30 6.95964 23.2843 0.885742 15 0.885742C6.71573 0.885742 0 6.95964 0 14.4522C0 21.9447 6.71573 28.0186 15 28.0186Z" fill="#65A2D9"/>
<path d="M23.0281 8.26904C21.4635 9.49686 19.9078 10.573 18.6363 12.0768C15.5085 15.4881 11.6863 20.3279 6.48474 19.6064L15.7783 28.0005C23.6566 27.6362 29.9285 21.7741 29.9982 14.5731L23.0281 8.26904Z" fill="#3A7CA5"/>
<path d="M23.3128 9.49591C22.9311 9.64901 22.5352 9.76973 22.1287 9.85707C22.5766 9.47228 22.9133 8.99083 23.1032 8.45358C23.1574 8.30026 22.9732 8.16751 22.82 8.24965C22.2546 8.55304 21.6456 8.78044 21.0098 8.92596C20.9731 8.93444 20.9351 8.93868 20.8968 8.93868C20.7809 8.93868 20.6685 8.89984 20.5798 8.82925C19.9035 8.29009 19.0335 7.99316 18.1303 7.99316C17.7393 7.99316 17.3448 8.04828 16.9574 8.15697C15.757 8.49364 14.8308 9.38929 14.54 10.4942C14.4311 10.9085 14.4016 11.3234 14.4524 11.727C14.4581 11.7734 14.434 11.8058 14.419 11.8209C14.3927 11.8475 14.3555 11.8628 14.3168 11.8628C14.3126 11.8628 14.308 11.8627 14.3037 11.8623C11.676 11.6414 9.30639 10.4965 7.63166 8.63831C7.54641 8.54351 7.38246 8.55516 7.31438 8.66068C6.98649 9.16974 6.81317 9.75177 6.81317 10.3441C6.81317 11.2517 7.21653 12.1072 7.9169 12.7309C7.62235 12.6677 7.33723 12.5682 7.07233 12.4351C6.94412 12.3707 6.78656 12.4536 6.78475 12.5861C6.76658 13.9346 7.63951 15.1345 8.94715 15.6747C8.92078 15.6753 8.89442 15.6755 8.86805 15.6755C8.6608 15.6755 8.4508 15.6576 8.24432 15.6217C8.1 15.5969 7.97877 15.7206 8.02354 15.8471C8.44811 17.0457 9.58899 17.9291 10.9545 18.1295C9.82131 18.8175 8.50155 19.1804 7.12817 19.1804L6.70008 19.1802C6.56795 19.1802 6.45633 19.2581 6.42293 19.3737C6.38983 19.4873 6.45071 19.6075 6.56332 19.6667C8.1109 20.4813 9.87627 20.9118 11.6691 20.9118C13.2384 20.9118 14.7064 20.6303 16.0323 20.0746C17.2478 19.5654 18.3219 18.8375 19.2248 17.911C20.0661 17.048 20.7237 16.0517 21.1798 14.9498C21.6145 13.8997 21.8443 12.7788 21.8443 11.709V11.6579C21.8443 11.4862 21.9301 11.3245 22.0801 11.2143C22.6488 10.7966 23.1441 10.3051 23.5521 9.7532C23.6599 9.60757 23.4899 9.42485 23.3128 9.49591Z" fill="white"/>
<path d="M23.3128 9.49591C22.931 9.64901 22.5352 9.76973 22.1287 9.85706C22.5766 9.47227 22.9133 8.99083 23.1032 8.45357C23.1575 8.30026 22.9732 8.16751 22.8201 8.24965C22.2547 8.55304 21.6456 8.78044 21.0099 8.92596C20.9731 8.93444 20.9351 8.93868 20.8969 8.93868C20.7809 8.93868 20.6686 8.89984 20.5798 8.82925C19.9035 8.29009 19.0335 7.99316 18.1303 7.99316C17.7394 7.99316 17.3449 8.04828 16.9575 8.15697C16.1183 8.39231 15.414 8.90143 14.9662 9.56374V20.4528C15.3308 20.3452 15.6865 20.2194 16.0325 20.0744C17.248 19.5652 18.3221 18.8373 19.225 17.9108C20.0662 17.0477 20.7239 16.0516 21.18 14.9496C21.6146 13.8995 21.8444 12.7786 21.8444 11.7088V11.6577C21.8444 11.486 21.9303 11.3244 22.0802 11.2142C22.6489 10.7965 23.1443 10.3049 23.5522 9.75304C23.6599 9.60757 23.4899 9.42484 23.3128 9.49591Z" fill="#D1D1D1"/>
</g>
<defs>
<clipPath id="clip0_127:26">
<rect width="30" height="27.1329" fill="white" transform="translate(0 0.885742)"/>
</clipPath>
</defs>
</svg>
